{
	"asset":{
		"generator":"Khronos glTF Blender I/O v4.5.48",
		"version":"2.0"
	},
	"scene":0,
	"scenes":[
		{
			"name":"Scene",
			"nodes":[
				0
			]
		}
	],
	"nodes":[
		{
			"mesh":0,
			"name":"street_rat"
		}
	],
	"materials":[
		{
			"doubleSided":true,
			"name":"street_rat",
			"normalTexture":{
				"index":0
			},
			"pbrMetallicRoughness":{
				"metallicFactor":0,
				"metallicRoughnessTexture":{
					"index":1
				}
			}
		}
	],
	"meshes":[
		{
			"name":"street_rat",
			"primitives":[
				{
					"attributes":{
						"POSITION":0,
						"NORMAL":1,
						"TEXCOORD_0":2
					},
					"indices":3,
					"material":0
				}
			]
		}
	],
	"textures":[
		{
			"sampler":0,
			"source":0
		},
		{
			"sampler":0,
			"source":1
		}
	],
	"images":[
		{
			"mimeType":"image/png",
			"name":"street_rat_nor_gl",
			"uri":"street_rat_nor_gl.png"
		},
		{
			"mimeType":"image/png",
			"name":"street_rat_rough",
			"uri":"street_rat_rough.png"
		}
	],
	"accessors":[
		{
			"bufferView":0,
			"componentType":5126,
			"count":8848,
			"max":[
				0.01613488607108593,
				0.03402780368924141,
				0.040975261479616165
			],
			"min":[
				-0.01613488607108593,
				-4.669651389122009e-06,
				-0.10743556916713715
			],
			"type":"VEC3"
		},
		{
			"bufferView":1,
			"componentType":5126,
			"count":8848,
			"type":"VEC3"
		},
		{
			"bufferView":2,
			"componentType":5126,
			"count":8848,
			"type":"VEC2"
		},
		{
			"bufferView":3,
			"componentType":5123,
			"count":42858,
			"type":"SCALAR"
		}
	],
	"bufferViews":[
		{
			"buffer":0,
			"byteLength":106176,
			"byteOffset":0,
			"target":34962
		},
		{
			"buffer":0,
			"byteLength":106176,
			"byteOffset":106176,
			"target":34962
		},
		{
			"buffer":0,
			"byteLength":70784,
			"byteOffset":212352,
			"target":34962
		},
		{
			"buffer":0,
			"byteLength":85716,
			"byteOffset":283136,
			"target":34963
		}
	],
	"samplers":[
		{
			"magFilter":9729,
			"minFilter":9987
		}
	],
	"buffers":[
		{
			"byteLength":368852,
			"uri":"street_rat_4k.bin"
		}
	]
}
